<svg xmlns="http://www.w3.org/2000/svg" width="2560" height="1440" viewBox="0 0 2560 1440" role="img">
<title>Bannière YouTube stewybear — version optimisée PC / desktop</title>
<desc>Bannière de chaîne YouTube : un ours brun mijote une soupe dans un chaudron, avec le pseudo stewybear et les réseaux Letterboxd, Discord et Steam, composée pour l'affichage sur ordinateur.</desc>
<defs>
<linearGradient id="sky" x1="0" y1="0" x2="0" y2="1">
<stop offset="0" stop-color="#06120c"/>
<stop offset="0.55" stop-color="#0e2c1c"/>
<stop offset="1" stop-color="#173b25"/>
</linearGradient>
<radialGradient id="soup" cx="0.42" cy="0.35" r="0.8">
<stop offset="0" stop-color="#ffc25a"/>
<stop offset="0.5" stop-color="#f08a2c"/>
<stop offset="1" stop-color="#c9531a"/>
</radialGradient>
<radialGradient id="moonGlow" cx="0.5" cy="0.5" r="0.5">
<stop offset="0" stop-color="#fff6d8" stop-opacity="0.5"/>
<stop offset="1" stop-color="#fff6d8" stop-opacity="0"/>
</radialGradient>
</defs>

<rect width="2560" height="1440" fill="url(#sky)"/>

<circle cx="2230" cy="560" r="240" fill="url(#moonGlow)"/>
<circle cx="2230" cy="560" r="92" fill="#f4ecc6"/>
<circle cx="2202" cy="536" r="18" fill="#e6dcae" opacity="0.6"/>
<circle cx="2256" cy="584" r="13" fill="#e6dcae" opacity="0.6"/>

<g fill="#ffffff">
<circle cx="180" cy="540" r="3"/><circle cx="360" cy="600" r="2.4"/><circle cx="120" cy="640" r="2.6"/>
<circle cx="1380" cy="560" r="3"/><circle cx="1500" cy="640" r="2.2"/><circle cx="1700" cy="560" r="3.2"/>
<circle cx="2400" cy="600" r="2.6"/><circle cx="2480" cy="700" r="2.2"/><circle cx="2360" cy="760" r="2.4"/>
<circle cx="1280" cy="700" r="2"/><circle cx="60" cy="700" r="2.2"/><circle cx="1600" cy="720" r="2"/>
</g>

<path d="M0 1080 L260 880 L520 1020 L820 800 L1120 1000 L1120 1440 L0 1440 Z" fill="#0e2718"/>
<path d="M1380 1010 L1700 820 L2000 990 L2300 840 L2560 1000 L2560 1440 L1380 1440 Z" fill="#0e2718"/>
<path d="M0 1180 L400 1040 L900 1180 L1400 1060 L1900 1180 L2560 1080 L2560 1440 L0 1440 Z" fill="#15351e"/>

<g fill="#091d11">
<path d="M200 800 L120 1000 L280 1000 Z"/><path d="M200 900 L100 1090 L300 1090 Z"/><path d="M200 1000 L80 1190 L320 1190 Z"/>
</g>
<g fill="#0b2614"><path d="M450 970 L385 1110 L515 1110 Z"/><path d="M450 1050 L365 1190 L535 1190 Z"/></g>
<g fill="#091d11">
<path d="M2360 800 L2280 1000 L2440 1000 Z"/><path d="M2360 900 L2260 1090 L2460 1090 Z"/><path d="M2360 1000 L2240 1190 L2480 1190 Z"/>
</g>
<g fill="#0b2614"><path d="M2120 980 L2055 1120 L2185 1120 Z"/><path d="M2120 1060 L2035 1190 L2205 1190 Z"/></g>

<rect y="1190" width="2560" height="250" fill="#0a1f12"/>

<g transform="translate(904.4,289.8) scale(0.6)">
<ellipse cx="1780" cy="775" rx="278" ry="165" fill="#5d3f25"/>
<g>
<circle cx="1668" cy="452" r="58" fill="#5e3f24"/><circle cx="1668" cy="452" r="30" fill="#8a5a33"/>
<circle cx="1892" cy="452" r="58" fill="#5e3f24"/><circle cx="1892" cy="452" r="30" fill="#8a5a33"/>
<circle cx="1780" cy="560" r="148" fill="#6f4c2e"/>
<ellipse cx="1780" cy="612" rx="98" ry="82" fill="#c89c6d"/>
<path d="M1702 486 L1750 500" stroke="#3a2414" stroke-width="11" stroke-linecap="round"/>
<path d="M1858 486 L1810 500" stroke="#3a2414" stroke-width="11" stroke-linecap="round"/>
<circle cx="1726" cy="522" r="15" fill="#160d07"/><circle cx="1834" cy="522" r="15" fill="#160d07"/>
<circle cx="1731" cy="517" r="5" fill="#ffffff"/><circle cx="1839" cy="517" r="5" fill="#ffffff"/>
<ellipse cx="1780" cy="572" rx="31" ry="23" fill="#241710"/>
<path d="M1780 595 L1780 616" stroke="#3a2414" stroke-width="6" stroke-linecap="round"/>
<path d="M1734 632 Q1780 700 1826 632 Q1806 672 1780 672 Q1754 672 1734 632 Z" fill="#3a2418"/>
<ellipse cx="1780" cy="658" rx="26" ry="14" fill="#d9655f"/>
<path d="M1748 632 L1760 648 L1772 632 Z" fill="#ffffff"/><path d="M1812 632 L1800 648 L1788 632 Z" fill="#ffffff"/>
</g>
<path d="M1535 758 C1545 905 1650 988 1780 988 C1910 988 2015 905 2025 758 Z" fill="#2a2a31"/>
<path d="M1545 770 C1556 895 1640 968 1720 975 C1640 940 1590 850 1580 770 Z" fill="#37373f"/>
<ellipse cx="1780" cy="755" rx="245" ry="58" fill="#3a3a44"/>
<ellipse cx="1780" cy="755" rx="215" ry="46" fill="url(#soup)"/>
<path d="M1525 740 q-44 18 -8 60" fill="none" stroke="#2a2a31" stroke-width="22" stroke-linecap="round"/>
<path d="M2035 740 q44 18 8 60" fill="none" stroke="#2a2a31" stroke-width="22" stroke-linecap="round"/>
<path d="M1660 988 l-18 46 l46 0 Z" fill="#23232a"/><path d="M1780 992 l-22 50 l44 0 Z" fill="#23232a"/><path d="M1900 988 l18 46 l-46 0 Z" fill="#23232a"/>
<ellipse cx="1720" cy="748" rx="40" ry="14" fill="#ffce6e" opacity="0.7"/>
<circle cx="1690" cy="760" r="11" fill="#ffd98a" opacity="0.85"/><circle cx="1760" cy="742" r="8" fill="#ffd98a" opacity="0.85"/>
<circle cx="1840" cy="758" r="9" fill="#ffd98a" opacity="0.85"/><circle cx="1882" cy="748" r="6" fill="#ffe7a8" opacity="0.85"/>
<path d="M1700 752 L1690 700 L1714 700 Z" fill="#ef7d2b"/>
<path d="M1690 700 q12 -26 36 -14 q-8 18 -36 14 Z" fill="#3fae4a"/>
<ellipse cx="1858" cy="742" rx="30" ry="16" fill="#e7d8b4"/><ellipse cx="1858" cy="734" rx="22" ry="13" fill="#b6603c"/>
<path d="M1808 760 q34 -30 64 -6 q-34 8 -64 6 Z" fill="#cfd9dd" opacity="0.9"/>
<g stroke="#ffffff" stroke-linecap="round" fill="none">
<path d="M1700 745 C1664 690 1742 656 1700 600 C1662 548 1736 512 1706 470" stroke-width="24" opacity="0.1"/>
<path d="M1800 745 C1838 692 1762 656 1804 604 C1842 556 1772 520 1808 478" stroke-width="22" opacity="0.09"/>
<path d="M1862 752 C1892 706 1834 676 1872 632" stroke-width="18" opacity="0.08"/>
</g>
<path d="M1560 700 C1500 720 1500 770 1572 772 C1612 772 1622 740 1600 718 Z" fill="#6a4829"/>
<ellipse cx="1576" cy="766" rx="34" ry="22" fill="#7d5836"/>
<path d="M1556 760 l8 16 M1576 762 l4 18 M1596 758 l0 18" stroke="#4a3320" stroke-width="4" stroke-linecap="round"/>
<path d="M1990 690 C2050 706 2052 760 1980 768 C1942 770 1930 736 1956 712 Z" fill="#6a4829"/>
<ellipse cx="1978" cy="762" rx="34" ry="22" fill="#7d5836"/>
<path d="M1960 758 l-6 16 M1980 760 l-2 18 M2000 756 l2 18" stroke="#4a3320" stroke-width="4" stroke-linecap="round"/>
<path d="M1960 712 L2052 588" stroke="#8a5a2c" stroke-width="20" stroke-linecap="round"/>
<path d="M2052 588 a26 26 0 1 0 0.1 0" fill="none" stroke="#a9743a" stroke-width="16"/>
<path d="M1600 1010 C1600 928 1652 906 1662 846 C1682 898 1702 886 1722 824 C1742 896 1772 868 1782 804 C1798 872 1828 888 1844 830 C1864 894 1890 902 1910 856 C1926 912 1962 936 1962 1010 Z" fill="#ff7d22"/>
<path d="M1648 1010 C1648 944 1688 928 1700 880 C1716 922 1746 916 1758 866 C1774 920 1808 916 1822 872 C1836 922 1880 936 1900 956 C1912 980 1916 994 1916 1010 Z" fill="#ffb347"/>
<path d="M1700 1010 C1700 962 1732 948 1744 912 C1760 948 1796 944 1808 908 C1822 950 1856 970 1856 1010 Z" fill="#ffe27a"/>
<circle cx="1640" cy="800" r="5" fill="#ffd56b"/><circle cx="1930" cy="820" r="4" fill="#ffd56b"/><circle cx="1860" cy="770" r="3.5" fill="#ffe7a8"/>
<rect x="1620" y="1000" width="320" height="34" rx="17" fill="#3a2616" transform="rotate(-8 1780 1017)"/>
<rect x="1640" y="1010" width="300" height="30" rx="15" fill="#4a3320" transform="rotate(7 1780 1025)"/>
<g stroke="#ffffff" stroke-linecap="round" fill="none">
<path d="M1736 748 C1702 700 1772 668 1738 616 C1706 568 1772 538 1748 500" stroke-width="20" opacity="0.07"/>
</g>
</g>

<text x="230" y="648" font-family="'Trebuchet MS', Verdana, sans-serif" font-weight="900" font-size="142" fill="#f0892b">stewy<tspan fill="#9a6a3c">bear</tspan></text>
<text x="236" y="712" font-family="'Trebuchet MS', Verdana, sans-serif" font-weight="700" font-size="34" letter-spacing="2" fill="#a9c2a8">cinéma · jeux · soupe sauvage</text>

<g font-family="'Trebuchet MS', Verdana, sans-serif" font-weight="700" font-size="34" fill="#f1e7cf">
<rect x="230" y="770" width="350" height="86" rx="43" fill="#0f2417" stroke="#33543a" stroke-width="2"/>
<circle cx="270" cy="813" r="14" fill="#00e054"/><circle cx="324" cy="813" r="14" fill="#40bcf4"/><circle cx="297" cy="813" r="14" fill="#ff8000"/>
<text x="352" y="825">Letterboxd</text>

<rect x="604" y="770" width="300" height="86" rx="43" fill="#0f2417" stroke="#33543a" stroke-width="2"/>
<g transform="translate(632,795) scale(1.5)" fill="#5865f2"><path d="M20.317 4.3698a19.7913 19.7913 0 0 0-4.8851-1.5152.0741.0741 0 0 0-.0785.0371c-.211.3753-.4447.8648-.6083 1.2495-1.8447-.2762-3.68-.2762-5.4868 0-.1636-.3933-.4058-.8742-.6177-1.2495a.077.077 0 0 0-.0785-.037 19.7363 19.7363 0 0 0-4.8852 1.515.0699.0699 0 0 0-.0321.0277C.5334 9.0458-.319 13.5799.0992 18.0578a.0824.0824 0 0 0 .0312.0561c2.0528 1.5076 4.0413 2.4228 5.9929 3.0294a.0777.0777 0 0 0 .0842-.0276c.4616-.6304.8731-1.2952 1.226-1.9942a.076.076 0 0 0-.0416-.1057c-.6528-.2476-1.2743-.5495-1.8722-.8923a.077.077 0 0 1-.0076-.1277c.1258-.0943.2517-.1923.3718-.2914a.0743.0743 0 0 1 .0776-.0105c3.9278 1.7933 8.18 1.7933 12.0614 0a.0739.0739 0 0 1 .0785.0095c.1202.099.246.1981.3728.2924a.077.077 0 0 1-.0066.1276 12.2986 12.2986 0 0 1-1.873.8914.0766.0766 0 0 0-.0407.1067c.3604.698.7719 1.3628 1.225 1.9932a.076.076 0 0 0 .0842.0286c1.961-.6067 3.9495-1.5219 6.0023-3.0294a.077.077 0 0 0 .0313-.0552c.5004-5.177-.8382-9.6739-3.5485-13.6604a.061.061 0 0 0-.0312-.0286zM8.02 15.3312c-1.1825 0-2.1569-1.0857-2.1569-2.419 0-1.3332.9555-2.4189 2.157-2.4189 1.2108 0 2.1757 1.0952 2.1568 2.419 0 1.3332-.9555 2.4189-2.1569 2.4189zm7.9748 0c-1.1825 0-2.1569-1.0857-2.1569-2.419 0-1.3332.9554-2.4189 2.1569-2.4189 1.2108 0 2.1757 1.0952 2.1568 2.419 0 1.3332-.9554 2.4189-2.1568 2.4189Z"/></g>
<text x="690" y="825">Discord</text>

<rect x="928" y="770" width="270" height="86" rx="43" fill="#0f2417" stroke="#33543a" stroke-width="2"/>
<g transform="translate(953,794) scale(1.583)" fill="#e6eef2"><path d="M11.979 0C5.678 0 .511 4.86.022 11.037l6.432 2.658c.545-.371 1.203-.59 1.912-.59.063 0 .125.004.188.006l2.861-4.142V8.91c0-2.495 2.028-4.524 4.524-4.524 2.494 0 4.524 2.031 4.524 4.527s-2.03 4.525-4.524 4.525h-.105l-4.076 2.911c0 .052.004.105.004.159 0 1.875-1.515 3.396-3.39 3.396-1.635 0-3.016-1.173-3.331-2.727L.436 15.27C1.862 20.307 6.486 24 11.979 24c6.627 0 11.999-5.373 11.999-12S18.605 0 11.979 0zM7.54 18.21l-1.473-.61c.262.543.714.999 1.314 1.25 1.297.539 2.793-.076 3.332-1.375.263-.63.264-1.319.005-1.949s-.75-1.121-1.377-1.383c-.624-.26-1.29-.249-1.878-.03l1.523.63c.956.4 1.409 1.5 1.009 2.455-.397.957-1.497 1.41-2.454 1.012zm11.415-9.303c0-1.662-1.353-3.015-3.015-3.015-1.665 0-3.015 1.353-3.015 3.015 0 1.665 1.35 3.015 3.015 3.015 1.663 0 3.015-1.35 3.015-3.015zm-5.273-.005c0-1.252 1.013-2.266 2.265-2.266 1.249 0 2.266 1.014 2.266 2.266 0 1.251-1.017 2.265-2.266 2.265-1.253 0-2.265-1.014-2.265-2.265z"/></g>
<text x="1014" y="825">Steam</text>
</g>
</svg>
